<svg xmlns="http://www.w3.org/2000/svg" version="1.1" xmlns:xlink="http://www.w3.org/1999/xlink" xmlns:svgjs="http://svgjs.dev/svgjs" width="2000" height="616" viewBox="0 0 2000 616"><g transform="matrix(1,0,0,1,-1.2121212121212466,0.49168982925857563)"><svg viewBox="0 0 396 122" data-background-color="#ffffff" preserveAspectRatio="xMidYMid meet" height="616" width="2000" xmlns="http://www.w3.org/2000/svg" xmlns:xlink="http://www.w3.org/1999/xlink"><g id="tight-bounds" transform="matrix(1,0,0,1,0.2400000000000091,-0.09738012852199063)"><svg viewBox="0 0 395.52 122.19476025704398" height="122.19476025704398" width="395.52"><g><svg viewBox="0 0 395.52 122.19476025704398" height="122.19476025704398" width="395.52"><g><svg viewBox="0 0 395.52 122.19476025704398" height="122.19476025704398" width="395.52"><g><svg viewBox="0 0 395.52 122.19476025704398" height="122.19476025704398" width="395.52"><g><svg viewBox="0 0 395.52 122.19476025704398" height="122.19476025704398" width="395.52"><g transform="matrix(1,0,0,1,0,0)"><svg width="395.52" viewBox="-12.5 -31.25 101.15 31.25" height="122.19476025704398" data-palette-color="#ca3433"><path d="M15.7-31.25L31.1-31.25Q34.7-31.25 36.33-30 37.95-28.75 37.95-26.15L37.95-26.15Q37.95-22.35 36.27-19.9 34.6-17.45 32.2-16.85L32.2-16.85 32.15-16.55Q36.65-15.7 36.65-10.6L36.65-10.6Q36.65-6.1 34.2-3.05 31.75 0 27.3 0L27.3 0 10.2 0 15.7-31.25ZM25.6-12.45L25.6-12.45 21.85-12.45 20.95-7.35 24.65-7.35Q25.9-7.35 26.55-8.35 27.2-9.35 27.2-10.9 27.2-12.45 25.6-12.45ZM27-24.4L27-24.4 24-24.4 23.15-19.75 26.1-19.75Q28.4-19.75 28.4-23L28.4-23Q28.4-24.4 27-24.4ZM9.1-2.4L8.7-0.15-12.5-2.4 9.1-2.4ZM10.8-12.05L10.4-9.8-10.8-12.05 10.8-12.05ZM11.65-16.85L11.25-14.6-9.95-16.85 11.65-16.85ZM12.5-21.65L12.1-19.4-9.1-21.65 12.5-21.65ZM13.3-26.45L12.95-24.2-8.25-26.45 13.3-26.45ZM9.95-7.25L9.55-5-11.65-7.25 9.95-7.25ZM14.15-31.25L13.75-29-7.4-31.25 14.15-31.25ZM47.8-2.4L47.3-0.15 26.2-2.4 47.8-2.4ZM48.95-7.25L48.4-5 27.35-7.25 48.95-7.25ZM50.05-12.05L49.55-9.8 28.5-12.05 50.05-12.05ZM51.2-16.85L50.65-14.6 29.65-16.85 51.2-16.85ZM52.3-21.65L51.8-19.4 30.8-21.65 52.3-21.65ZM53.45-26.45L52.9-24.2 31.95-26.45 53.45-26.45ZM54.55-31.25L54.05-29 33.1-31.25 54.55-31.25ZM61.95-15.15L58.7 0 48.8 0 56.1-31.25 68.5-31.25 69.4-15.35 69.75-15.35 76.25-31.25 88.65-31.25 84.95 0 75 0 77.1-15.15 76.75-15.15 70.5 0 63.25 0 62.2-15.15 61.95-15.15Z" opacity="1" transform="matrix(1,0,0,1,0,0)" fill="#ca3433" class="undefined-text-0" data-fill-palette-color="primary" id="text-0"></path></svg></g></svg></g></svg></g></svg></g></svg></g><defs></defs></svg><rect width="395.52" height="122.19476025704398" fill="none" stroke="none" visibility="hidden"></rect></g></svg></g></svg>