<svg xmlns="http://www.w3.org/2000/svg" version="1.1" xmlns:xlink="http://www.w3.org/1999/xlink" xmlns:svgjs="http://svgjs.dev/svgjs" width="128" height="128" viewBox="0 0 128 128"><g transform="matrix(0.8046875,0,0,0.8046875,12.333870967741937,32.11590890723721)"><svg viewBox="0 0 155 96" data-background-color="#ffffff" preserveAspectRatio="xMidYMid meet" height="79" width="128" xmlns="http://www.w3.org/2000/svg" xmlns:xlink="http://www.w3.org/1999/xlink"><g id="tight-bounds" transform="matrix(1,0,0,1,0.25,0.14940535183349368)"><svg viewBox="0 0 154.5 95.701189296333" height="95.701189296333" width="154.5"><g><svg viewBox="0 0 154.5 95.701189296333" height="95.701189296333" width="154.5"><g><svg viewBox="0 0 154.5 95.701189296333" height="95.701189296333" width="154.5"><g><svg viewBox="0 0 154.5 95.701189296333" height="95.701189296333" width="154.5"><g><svg viewBox="0 0 154.5 95.701189296333" height="95.701189296333" width="154.5"><g transform="matrix(1,0,0,1,0,0)"><svg width="154.5" viewBox="-12.5 -31.25 50.45 31.25" height="95.701189296333" data-palette-color="#ca3433"><path d="M15.7-31.25L31.1-31.25Q34.7-31.25 36.33-30 37.95-28.75 37.95-26.15L37.95-26.15Q37.95-22.35 36.27-19.9 34.6-17.45 32.2-16.85L32.2-16.85 32.15-16.55Q36.65-15.7 36.65-10.6L36.65-10.6Q36.65-6.1 34.2-3.05 31.75 0 27.3 0L27.3 0 10.2 0 15.7-31.25ZM25.6-12.45L25.6-12.45 21.85-12.45 20.95-7.35 24.65-7.35Q25.9-7.35 26.55-8.35 27.2-9.35 27.2-10.9 27.2-12.45 25.6-12.45ZM27-24.4L27-24.4 24-24.4 23.15-19.75 26.1-19.75Q28.4-19.75 28.4-23L28.4-23Q28.4-24.4 27-24.4ZM9.1-2.4L8.7-0.15-12.5-2.4 9.1-2.4ZM10.8-12.05L10.4-9.8-10.8-12.05 10.8-12.05ZM11.65-16.85L11.25-14.6-9.95-16.85 11.65-16.85ZM12.5-21.65L12.1-19.4-9.1-21.65 12.5-21.65ZM13.3-26.45L12.95-24.2-8.25-26.45 13.3-26.45ZM9.95-7.25L9.55-5-11.65-7.25 9.95-7.25ZM14.15-31.25L13.75-29-7.4-31.25 14.15-31.25Z" opacity="1" transform="matrix(1,0,0,1,0,0)" fill="#ca3433" class="undefined-text-0" data-fill-palette-color="primary" id="text-0"></path></svg></g></svg></g></svg></g></svg></g></svg></g><defs></defs></svg><rect width="154.5" height="95.701189296333" fill="none" stroke="none" visibility="hidden"></rect></g></svg></g></svg>